<svg xmlns="http://www.w3.org/2000/svg" viewBox="0 0 48 48" id="eye-shadow"><g data-name="Eyes Shadow"><path fill="#0075f6" d="M45.38 8h-43a1 1 0 0 1-1-1.32l1.1-3.31A2 2 0 0 1 4.44 2h38.32a2 2 0 0 1 1.79 1.11l1.73 3.44a1 1 0 0 1-.9 1.45Z"></path><circle cx="11" cy="31" r="3" fill="#0075f6"></circle><circle cx="37" cy="31" r="3" fill="#3f3f44"></circle><path fill="#3f3f44" d="M24 28a3 3 0 1 0 3 3 3 3 0 0 0-3-3Zm0 0a3 3 0 1 0 3 3 3 3 0 0 0-3-3ZM11 15a3 3 0 1 0 3 3 3 3 0 0 0-3-3Zm13 13a3 3 0 1 0 3 3 3 3 0 0 0-3-3Zm0-13a3 3 0 1 0 3 3 3 3 0 0 0-3-3Zm0 0a3 3 0 1 0 3 3 3 3 0 0 0-3-3Zm0 13a3 3 0 1 0 3 3 3 3 0 0 0-3-3ZM11 15a3 3 0 1 0 3 3 3 3 0 0 0-3-3Zm-8-5v26a3 3 0 0 0 3 3h36a3 3 0 0 0 3-3V10Zm8 26a5 5 0 1 1 5-5 5 5 0 0 1-5 5Zm0-13a5 5 0 1 1 5-5 5 5 0 0 1-5 5Zm13 13a5 5 0 1 1 5-5 5 5 0 0 1-5 5Zm0-13a5 5 0 1 1 5-5 5 5 0 0 1-5 5Zm13 13a5 5 0 1 1 5-5 5 5 0 0 1-5 5Zm0-13a5 5 0 1 1 5-5 5 5 0 0 1-5 5Zm0-8a3 3 0 1 0 3 3 3 3 0 0 0-3-3Zm-13 0a3 3 0 1 0 3 3 3 3 0 0 0-3-3Zm0 13a3 3 0 1 0 3 3 3 3 0 0 0-3-3ZM11 15a3 3 0 1 0 3 3 3 3 0 0 0-3-3Zm0 0a3 3 0 1 0 3 3 3 3 0 0 0-3-3Zm13 13a3 3 0 1 0 3 3 3 3 0 0 0-3-3Zm0 0a3 3 0 1 0 3 3 3 3 0 0 0-3-3ZM11 15a3 3 0 1 0 3 3 3 3 0 0 0-3-3Zm13 13a3 3 0 1 0 3 3 3 3 0 0 0-3-3Zm0 0a3 3 0 1 0 3 3 3 3 0 0 0-3-3Z"></path><circle cx="11" cy="18" r="3" fill="#3f3f44"></circle><circle cx="24" cy="31" r="3" fill="#3f3f44"></circle><circle cx="24" cy="18" r="3" fill="#3f3f44"></circle><circle cx="37" cy="31" r="3" fill="#3f3f44"></circle><circle cx="37" cy="18" r="3" fill="#3f3f44"></circle><circle cx="37" cy="31" r="3" fill="#0075f6"></circle><circle cx="11" cy="18" r="3" fill="#0075f6"></circle><circle cx="37" cy="18" r="3" fill="#0075f6"></circle><circle cx="24" cy="31" r="3" fill="#0075f6"></circle><circle cx="24" cy="18" r="3" fill="#0075f6"></circle><ellipse cx="34" cy="44" fill="#0075f6" rx="3" ry="2"></ellipse><ellipse cx="14" cy="44" fill="#0075f6" rx="3" ry="2"></ellipse><path fill="#0075f6" d="M31 45H17a1 1 0 0 1 0-2h14a1 1 0 0 1 0 2Z"></path></g></svg>